<svg width="800" height="800" viewBox="0 0 800 800" fill="none" xmlns="http://www.w3.org/2000/svg">
<path opacity="0.8" d="M675 255C675 112.5 603.75 25 603.75 25H196.25C196.25 25 125 113.75 125 255C125 390 241.25 516.25 386.25 523.75C385 602.5 377.5 683.75 358.75 712.5C331.25 752.5 236.25 732.5 236.25 775H563.75C563.75 732.5 468.75 752.5 441.25 712.5C422.5 683.75 415 602.5 413.75 523.75C558.75 516.25 675 391.25 675 255ZM400 491.25C277.5 491.25 176.25 393.75 163.75 282.5C162.5 275 162.5 266.25 162.5 258.75C162.5 135 223.75 60 223.75 60H576.25C576.25 60 636.25 135 637.5 256.25V258.75C637.5 378.75 531.25 491.25 400 491.25Z" fill="#767676"/>
</svg>
